<?xml version="1.0" encoding="utf-8"?>
<!-- Generator: Adobe Illustrator 25.4.1, SVG Export Plug-In . SVG Version: 6.00 Build 0)  -->
<svg version="1.1" id="Layer_1" xmlns="http://www.w3.org/2000/svg" xmlns:xlink="http://www.w3.org/1999/xlink" x="0px" y="0px"
	 viewBox="0 0 256 256" style="enable-background:new 0 0 256 256;" xml:space="preserve">
<style type="text/css">
	.st0{fill:#0073AA;}
</style>
<path class="st0" d="M150,1C92,1,45,48,45,106c0,25,8.8,48,23.4,66.1L4.2,236.2c-4.3,4.3-4.3,11.3,0,15.6c2.1,2.1,5,3.2,7.8,3.2
	s5.6-1.1,7.8-3.2L84,187.6c18,14.6,41,23.4,66.1,23.4c58,0,105-47,105-105S208,1,150,1z M150,189c-18.9,0-36.4-6.4-50.4-17.1l17-17
	c5.4,3.7,11.5,6.5,18.1,8.3l13.1-48.9c1-3.7-2.4-7.1-6.1-6.1l-48.9,13.1c1.7,6.5,4.6,12.6,8.3,18.1l-17,17
	C73.4,142.4,67,124.9,67,106c0-45.8,37.2-83,83-83s83,37.2,83,83S195.8,189,150,189z"/>
</svg>
